<?xml version="1.0" standalone="no"?>
<svg xmlns:xlink="http://www.w3.org/1999/xlink" id="wave" style="transform:rotate(0deg); transition: 0.3s" viewBox="0 0 1440 490" version="1.1" xmlns="http://www.w3.org/2000/svg"><defs><linearGradient id="sw-gradient-0" x1="0" x2="0" y1="1" y2="0"><stop stop-color="rgba(11, 80, 116, 1)" offset="0%"/><stop stop-color="rgba(37, 99, 235, 1)" offset="100%"/></linearGradient></defs><path style="transform:translate(0, 0px); opacity:1" fill="url(#sw-gradient-0)" d="M0,294L80,302.2C160,310,320,327,480,277.7C640,229,800,114,960,98C1120,82,1280,163,1440,212.3C1600,261,1760,278,1920,236.8C2080,196,2240,98,2400,89.8C2560,82,2720,163,2880,228.7C3040,294,3200,343,3360,367.5C3520,392,3680,392,3840,400.2C4000,408,4160,425,4320,367.5C4480,310,4640,180,4800,122.5C4960,65,5120,82,5280,147C5440,212,5600,327,5760,351.2C5920,376,6080,310,6240,277.7C6400,245,6560,245,6720,236.8C6880,229,7040,212,7200,228.7C7360,245,7520,294,7680,302.2C7840,310,8000,278,8160,261.3C8320,245,8480,245,8640,277.7C8800,310,8960,376,9120,408.3C9280,441,9440,441,9600,432.8C9760,425,9920,408,10080,408.3C10240,408,10400,425,10560,375.7C10720,327,10880,212,11040,187.8C11200,163,11360,229,11440,261.3L11520,294L11520,490L11440,490C11360,490,11200,490,11040,490C10880,490,10720,490,10560,490C10400,490,10240,490,10080,490C9920,490,9760,490,9600,490C9440,490,9280,490,9120,490C8960,490,8800,490,8640,490C8480,490,8320,490,8160,490C8000,490,7840,490,7680,490C7520,490,7360,490,7200,490C7040,490,6880,490,6720,490C6560,490,6400,490,6240,490C6080,490,5920,490,5760,490C5600,490,5440,490,5280,490C5120,490,4960,490,4800,490C4640,490,4480,490,4320,490C4160,490,4000,490,3840,490C3680,490,3520,490,3360,490C3200,490,3040,490,2880,490C2720,490,2560,490,2400,490C2240,490,2080,490,1920,490C1760,490,1600,490,1440,490C1280,490,1120,490,960,490C800,490,640,490,480,490C320,490,160,490,80,490L0,490Z"/></svg>