<svg xmlns="http://www.w3.org/2000/svg" viewBox="0 0 500 500"><g id="freepik--background-simple--inject-2"><path d="M448.78,113.53a149.17,149.17,0,0,0-10.93-15.35c-32.36-39.79-74.67-56.63-123-67.91C264.93,18.62,206.48,15,158.55,36c-11.28,5-22,11.6-30.48,20.6C96,90.51,85,147.3,49.29,192.19S-3.84,293,28.22,346.08c13.57,22.48,30.87,41,51.34,57.3,25.2,20,46.94,47.06,76.07,62.71,30.61,16.44,71.38,22.17,105.26,14.64,38.65-8.59,61.32-42.75,90.82-66,23.26-18.36,51.09-30.38,73.88-49.32,34.92-29,61.4-75.66,57-121.89C478.27,198.64,472.71,152,448.78,113.53Z" style="fill:#86D70A"></path><path d="M448.78,113.53a149.17,149.17,0,0,0-10.93-15.35c-32.36-39.79-74.67-56.63-123-67.91C264.93,18.62,206.48,15,158.55,36c-11.28,5-22,11.6-30.48,20.6C96,90.51,85,147.3,49.29,192.19S-3.84,293,28.22,346.08c13.57,22.48,30.87,41,51.34,57.3,25.2,20,46.94,47.06,76.07,62.71,30.61,16.44,71.38,22.17,105.26,14.64,38.65-8.59,61.32-42.75,90.82-66,23.26-18.36,51.09-30.38,73.88-49.32,34.92-29,61.4-75.66,57-121.89C478.27,198.64,472.71,152,448.78,113.53Z" style="fill:#fff;opacity:0.7000000000000001"></path></g><g id="freepik--Window--inject-2"><path d="M454.75,31.1a4.59,4.59,0,0,0-4.35,3.14H224.89a4.62,4.62,0,1,0,0,2.95H450.4a4.6,4.6,0,1,0,4.35-6.09Z" style="opacity:0.2"></path><g style="opacity:0.2"><path d="M278.22,38c3.22,78.18,6,157.11,9.39,235l-.33,15.27s-14.45,0-22.06.76-19.4.76-27.77.76-12.93-3.05-12.93-3.05l.55-13.76c1.68-77.86,3.51-156.8,4.69-235" style="fill:none;stroke:#000;stroke-linejoin:round"></path><line x1="242.19" y1="260.11" x2="242.15" y2="269.31" style="fill:none;stroke:#000;stroke-linejoin:round"></line><line x1="242.98" y1="80.75" x2="242.23" y2="251.93" style="fill:none;stroke:#000;stroke-linejoin:round"></line><line x1="243.17" y1="36.29" x2="243" y2="75.64" style="fill:none;stroke:#000;stroke-linejoin:round"></line><line x1="256.14" y1="126.21" x2="254.41" y2="240.18" style="fill:none;stroke:#000;stroke-linejoin:round"></line><line x1="257.48" y1="37.31" x2="256.24" y2="119.08" style="fill:none;stroke:#000;stroke-linejoin:round"></line><line x1="268.24" y1="157.91" x2="268.72" y2="263.69" style="fill:none;stroke:#000;stroke-linejoin:round"></line><line x1="267.9" y1="82.79" x2="268.2" y2="149.22" style="fill:none;stroke:#000;stroke-linejoin:round"></line><line x1="267.7" y1="38.33" x2="267.86" y2="74.62" style="fill:none;stroke:#000;stroke-linejoin:round"></line></g><g style="opacity:0.2"><path d="M394.89,38c-3.09,82.78-7,166.39-10,248.73a138.9,138.9,0,0,0,16.18,1.49h32.31a93.14,93.14,0,0,0,14.95-1.54c-1.45-82.29-2.44-165.9-5-248.68" style="fill:none;stroke:#000;stroke-linejoin:round"></path><line x1="430.92" y1="260.11" x2="430.96" y2="269.31" style="fill:none;stroke:#000;stroke-linejoin:round"></line><line x1="430.14" y1="80.75" x2="430.89" y2="251.93" style="fill:none;stroke:#000;stroke-linejoin:round"></line><line x1="429.94" y1="36.29" x2="430.11" y2="75.64" style="fill:none;stroke:#000;stroke-linejoin:round"></line><line x1="416.98" y1="126.21" x2="418.7" y2="240.18" style="fill:none;stroke:#000;stroke-linejoin:round"></line><line x1="415.63" y1="37.31" x2="416.87" y2="119.08" style="fill:none;stroke:#000;stroke-linejoin:round"></line><line x1="404.87" y1="157.91" x2="404.39" y2="263.69" style="fill:none;stroke:#000;stroke-linejoin:round"></line><line x1="405.21" y1="82.79" x2="404.91" y2="149.22" style="fill:none;stroke:#000;stroke-linejoin:round"></line><line x1="405.41" y1="38.33" x2="405.25" y2="74.62" style="fill:none;stroke:#000;stroke-linejoin:round"></line></g><g style="opacity:0.2"><polyline points="279.66 60.24 302.35 60.24 302.35 86.72 281.17 86.72" style="fill:none;stroke:#000;stroke-linejoin:round"></polyline><rect x="306.31" y="60.3" width="23.72" height="26.56" style="fill:none;stroke:#000;stroke-linejoin:round"></rect></g><g style="opacity:0.2"><polyline points="393.76 60.24 371.07 60.24 371.07 86.72 392.25 86.72" style="fill:none;stroke:#000;stroke-linejoin:round"></polyline><rect x="343.39" y="60.3" width="23.72" height="26.56" transform="translate(710.5 147.16) rotate(180)" style="fill:none;stroke:#000;stroke-linejoin:round"></rect></g><polyline points="283.4 180.55 330.64 180.55 330.64 101.17 281.33 101.17" style="fill:none;stroke:#000;stroke-linejoin:round;opacity:0.2"></polyline><polyline points="391.37 100.5 343.1 100.5 343.1 180.55 387.74 180.55" style="fill:none;stroke:#000;stroke-linejoin:round;opacity:0.2"></polyline><polyline points="284.96 199.39 330.64 199.39 330.64 279.19 288.42 279.19" style="fill:none;stroke:#000;stroke-linejoin:round;opacity:0.2"></polyline><polyline points="388.26 198.72 343.1 198.72 343.1 279.93 384.27 279.93" style="fill:none;stroke:#000;stroke-linejoin:round;opacity:0.2"></polyline><line x1="288.21" y1="285" x2="384.9" y2="285" style="fill:none;stroke:#000;stroke-linejoin:round;opacity:0.2"></line><line x1="279.47" y1="51.05" x2="393.71" y2="51.05" style="fill:none;stroke:#000;stroke-linejoin:round;opacity:0.2"></line><line x1="336.86" y1="51.6" x2="336.86" y2="283.9" style="fill:none;stroke:#000;stroke-linejoin:round;opacity:0.2"></line><line x1="280.92" y1="95.03" x2="392.04" y2="95.03" style="fill:none;stroke:#000;stroke-linejoin:round;opacity:0.2"></line></g><g id="freepik--Couch--inject-2"><g style="opacity:0.2"><path d="M354.9,385.19V308a11.09,11.09,0,0,0-11.1-11.09H242.38V386" style="fill:none;stroke:#000;stroke-linejoin:round"></path><path d="M243.23,296.89H139.92A11.08,11.08,0,0,0,128.83,308v77.21" style="fill:none;stroke:#000;stroke-linejoin:round"></path><path d="M364.92,392.56v26H242.43V385.19H357.55A7.37,7.37,0,0,1,364.92,392.56Z" style="fill:none;stroke:#000;stroke-linejoin:round"></path><path d="M243.36,385.19H126.19a7.37,7.37,0,0,0-7.38,7.37v26H243.36" style="fill:none;stroke:#000;stroke-linejoin:round"></path><rect x="118.81" y="418.53" width="246.32" height="41.83" style="fill:none;stroke:#000;stroke-linejoin:round"></rect><path d="M128.83,340.89a7.44,7.44,0,0,0-5.37-2.29H101.15A7.43,7.43,0,0,0,93.71,346v106.9a7.44,7.44,0,0,0,7.44,7.43h22.31" style="fill:none;stroke:#000;stroke-linejoin:round"></path><path d="M357.69,460.36H380a7.43,7.43,0,0,0,7.43-7.43V346A7.43,7.43,0,0,0,380,338.6H357.69a7.38,7.38,0,0,0-2.79.54" style="fill:none;stroke:#000;stroke-linejoin:round"></path></g></g><g id="freepik--Device--inject-2"><path d="M248.87,147.22V112.3h-3.16V67.6A27.55,27.55,0,0,0,218.16,40h-148A27.56,27.56,0,0,0,42.59,67.6V368.34A27.56,27.56,0,0,0,70.15,395.9h148a27.55,27.55,0,0,0,27.55-27.56V177h3.16V156.35h-3.16v-9.13Z" style="fill:#707070;stroke:#263238;stroke-linejoin:round"></path><rect x="45.78" y="43.84" width="196.74" height="348.26" rx="30.52" style="fill:#263238;stroke:#263238;stroke-linejoin:round"></rect><path d="M209.5,46.34H154.86l-.06.2c-1.61,5.82-5.34,9.6-9.46,9.6H143c-4.13,0-7.85-3.78-9.47-9.6l-.05-.2H78.81A27.56,27.56,0,0,0,51.25,73.9V348.66a27.55,27.55,0,0,0,27.56,27.55H209.5a27.54,27.54,0,0,0,27.55-27.55V73.9A27.55,27.55,0,0,0,209.5,46.34Z" style="fill:#fff;stroke:#263238;stroke-linejoin:round"></path><path d="M209.5,46.34H154.86l-.06.2c-1.61,5.82-5.34,9.6-9.46,9.6H143c-4.13,0-7.85-3.78-9.47-9.6l-.05-.2H78.81A27.56,27.56,0,0,0,51.25,73.9V77h185.8V73.9A27.55,27.55,0,0,0,209.5,46.34Z" style="fill:#86D70A"></path><path d="M205.79,202c0-6,8.18-13.06,6.7-18.62-1.54-5.75-12.19-7.74-15.1-12.78s.61-15.31-3.54-19.46-14.34-.57-19.46-3.53-7-13.56-12.77-15.1c-5.56-1.48-12.59,6.7-18.62,6.7s-13.06-8.18-18.62-6.7c-5.75,1.54-7.74,12.19-12.78,15.1s-15.31-.61-19.46,3.54-.57,14.34-3.53,19.46-13.56,7-15.1,12.77C72,188.94,80.21,196,80.21,202s-8.18,13.06-6.7,18.62c1.54,5.75,12.19,7.74,15.1,12.78s-.61,15.31,3.54,19.46,14.34.57,19.46,3.53,7,13.56,12.77,15.1c5.56,1.48,12.59-6.7,18.62-6.7s13.06,8.18,18.62,6.7c5.75-1.54,7.74-12.19,12.78-15.1s15.31.61,19.46-3.54.57-14.34,3.53-19.46,13.56-7,15.1-12.77C214,215.06,205.79,208,205.79,202Z" style="fill:#86D70A"></path><path d="M142.13,227.16,115,198.44a3.42,3.42,0,0,1,5-4.7L141.3,216.3l26.9-39a3.43,3.43,0,1,1,5.64,3.89Z" style="fill:#fff"></path><path d="M72.15,303.88l-.82.83-5.64,5.64-6.48-6.47a4,4,0,0,1,0-5.64,4,4,0,0,1,5.64,0l.84.83.82-.83a4,4,0,0,1,5.64,0A4,4,0,0,1,72.15,303.88Z" style="fill:none;stroke:#263238;stroke-linejoin:round"></path><circle cx="87.88" cy="303.98" r="8.25" style="fill:none;stroke:#263238;stroke-linecap:round;stroke-linejoin:round"></circle><path d="M83.06,305.49a4.75,4.75,0,0,0,4.82,3.89,4.53,4.53,0,0,0,4.82-3.89Z" style="fill:none;stroke:#263238;stroke-linecap:round;stroke-linejoin:round"></path><path d="M85.92,302.46c0,.94-.28,1.7-.62,1.7s-.62-.76-.62-1.7.28-1.71.62-1.71S85.92,301.51,85.92,302.46Z" style="fill:#263238"></path><path d="M90.57,302.46c0,.94-.28,1.7-.62,1.7s-.62-.76-.62-1.7.28-1.71.62-1.71S90.57,301.51,90.57,302.46Z" style="fill:#263238"></path><line x1="59.38" y1="320.5" x2="116.5" y2="320.5" style="fill:none;stroke:#263238;stroke-linejoin:round"></line><line x1="162.33" y1="328" x2="181.67" y2="328" style="fill:none;stroke:#263238;stroke-linejoin:round"></line><line x1="146.33" y1="328" x2="158.33" y2="328" style="fill:none;stroke:#263238;stroke-linejoin:round"></line><line x1="98.33" y1="328" x2="141.67" y2="328" style="fill:none;stroke:#263238;stroke-linejoin:round"></line><line x1="59.38" y1="328" x2="93" y2="328" style="fill:none;stroke:#263238;stroke-linejoin:round"></line><line x1="132.33" y1="336" x2="170" y2="336" style="fill:none;stroke:#263238;stroke-linejoin:round"></line><line x1="99" y1="336" x2="127.67" y2="336" style="fill:none;stroke:#263238;stroke-linejoin:round"></line><line x1="59.38" y1="336" x2="94.33" y2="336" style="fill:none;stroke:#263238;stroke-linejoin:round"></line><line x1="219.67" y1="344" x2="224.33" y2="344" style="fill:none;stroke:#263238;stroke-linejoin:round"></line><line x1="185" y1="344" x2="216.33" y2="344" style="fill:none;stroke:#263238;stroke-linejoin:round"></line><line x1="123.67" y1="344" x2="177" y2="344" style="fill:none;stroke:#263238;stroke-linejoin:round"></line><line x1="73" y1="344" x2="118.33" y2="344" style="fill:none;stroke:#263238;stroke-linejoin:round"></line><line x1="59.38" y1="344" x2="67.67" y2="344" style="fill:none;stroke:#263238;stroke-linejoin:round"></line><circle cx="70.87" cy="102.67" r="10.96" style="fill:#595959"></circle><line x1="87.31" y1="103.17" x2="125.18" y2="103.17" style="fill:none;stroke:#263238;stroke-linejoin:round"></line><circle cx="143.59" cy="47.66" r="2.59" style="fill:#707070"></circle><path d="M67.76,57.58c0,2.61-2.93,3.56-3,5.55v.14h2.86v.88H63.86v-.74c0-2.81,2.94-3.35,2.94-5.8,0-.89-.3-1.36-1-1.36s-1,.51-1,1.28v.77h-.9v-.71c0-1.33.61-2.21,2-2.21S67.76,56.25,67.76,57.58Z" style="fill:#fff"></path><path d="M72.52,57.56v.23a1.72,1.72,0,0,1-1.06,1.78,1.74,1.74,0,0,1,1.06,1.8V62c0,1.33-.62,2.2-2,2.2s-2-.87-2-2.2v-.59h.91v.65c0,.78.32,1.26,1,1.26s1-.46,1-1.34v-.67c0-.86-.36-1.27-1.09-1.29h-.52v-.87h.57a1,1,0,0,0,1-1.19v-.4c0-.89-.31-1.35-1-1.35s-1,.48-1,1.26V58h-.91v-.4c0-1.32.62-2.18,2-2.18S72.52,56.24,72.52,57.56Z" style="fill:#fff"></path><path d="M74.39,58.22v1.2h-.93v-1.2Zm0,4.73v1.2h-.93V63Z" style="fill:#fff"></path><path d="M76.35,59a1.4,1.4,0,0,1,1.29-.72c1.12,0,1.61.82,1.61,2.06V62c0,1.33-.63,2.2-2,2.2s-1.94-.87-1.94-2.2v-.58h.9v.64c0,.78.32,1.26,1,1.26s1-.48,1-1.26V60.42c0-.78-.33-1.26-1-1.26a.94.94,0,0,0-1,.93v.2h-.91l.24-4.82H79v.87H76.49Z" style="fill:#fff"></path><path d="M84.08,57.55v.16h-.91v-.22c0-.78-.32-1.24-1-1.24s-1.06.47-1.06,1.4v2a1.4,1.4,0,0,1,1.4-.93c1.12,0,1.61.8,1.61,2.06V62c0,1.33-.65,2.2-2,2.2s-2-.87-2-2.2V57.61c0-1.37.62-2.23,2-2.23S84.08,56.22,84.08,57.55Zm-3,3.25v1.3c0,.78.32,1.26,1,1.26s1-.48,1-1.26V60.8c0-.78-.34-1.25-1-1.25S81.09,60,81.09,60.8Z" style="fill:#fff"></path><rect x="176.41" y="57.93" width="2.45" height="6.13" style="fill:#fff"></rect><rect x="179.68" y="56.7" width="2.45" height="7.36" style="fill:#fff"></rect><rect x="182.95" y="55.83" width="2.45" height="8.23" style="fill:#fff"></rect><rect x="186.22" y="54.32" width="2.45" height="9.74" style="fill:#fff"></rect><path d="M219,63.89H204.3v-9H219Zm-13.9-.81h13.08V55.72H205.11Z" style="fill:#fff"></path><rect x="206.34" y="56.61" width="7.76" height="5.58" style="fill:#fff"></rect><rect x="218.5" y="58.34" width="1.85" height="2.12" style="fill:#fff"></rect><path d="M198.9,61.94a.6.6,0,0,1-.28-.08c-3-1.78-5-.13-5.05-.06a.55.55,0,1,1-.72-.82c.1-.1,2.63-2.26,6.34-.06a.55.55,0,0,1,.19.75A.57.57,0,0,1,198.9,61.94Z" style="fill:#fff"></path><path d="M200,60.09a.5.5,0,0,1-.28-.08c-4.33-2.57-7.24-.08-7.27-.06a.53.53,0,0,1-.77-.05.54.54,0,0,1,.05-.77s3.54-3,8.55-.06a.54.54,0,0,1,.19.75A.53.53,0,0,1,200,60.09Z" style="fill:#fff"></path><path d="M201,58a.53.53,0,0,1-.28-.07c-5.49-3.26-9.13-.2-9.28-.06a.55.55,0,0,1-.73-.83c.05,0,4.38-3.74,10.57-.06a.55.55,0,0,1,.19.75A.54.54,0,0,1,201,58Z" style="fill:#fff"></path><path d="M197.25,62.86a1.38,1.38,0,1,1-1.38-1.38A1.38,1.38,0,0,1,197.25,62.86Z" style="fill:#fff"></path></g></svg>